<svg xmlns="http://www.w3.org/2000/svg" width="150" height="36" viewBox="0 0 150 36" fill="none">
  <g transform="translate(0 0) scale(0.072)">
    <path
      fill="#ffffff"
      d="M429.26 192.66c-9.52-56.02-46.66-103.51-98.27-127.36-74.04-34.24-162.68-16.2-215.73 45.72-16.6 19.36-28.44 40.99-36.68 64.99-15.18 44.18-13.23 87.26 1.89 131.23 14.96 43.5 41.49 81.88 77.71 110.35 22.39 17.59 48.15 29.65 76.2 34.33 4.59.76 9.28-2.86 9.28-7.81l.09-87.84c9.49 3.62 17.15 6.78 26.1 8.97 38.11 10.18 77.99 1.94 108.92-22.67 44.2-35.15 59.89-94.82 50.49-149.91ZM168.13 404.34c-25.25-20.57-39.42-51.1-39.88-83.64 2.28-55.79 43.86-98.32 99.29-102.09l.03 215.11c-21.9-5.32-41.98-15.16-59.44-29.38Zm75.56-110.62v-16.23l.03-58.55c26.63 2.91 48.06 20.96 55.12 46.33 2.01 5.16 3.16 11.23 3.16 17.73 0 6.04-1 11.72-2.76 16.63 0 .04-.01.08-.03.11-.27.9-.55 1.78-.86 2.66H243.7v-8.68Zm7.39 47.48-7.36-4.19V318.6h46.21c-4.05 5.58-9.09 10.5-15.03 14.58-7.61 4.77-14.91 7.57-23.82 8.02Zm151.48-55.35c-23.09 49.16-71.57 76.29-125.75 64.41 21.23-11.03 35.83-31.14 39.64-54.99 4.95-31.06-9.07-62.08-35.29-79.79-16.33-10.3-33.67-14.25-52.68-13.4C186.17 204 147.39 228 127.16 265.1c-13.08 24.03-17.61 50.61-12.99 77.38-26.34-45.91-37.84-100.93-23.06-151.73 7.3-25.1 18.68-48.28 35.62-68.3C179.81 59.77 273.71 47.04 342.6 90.3c42.04 26.44 68.69 70.25 72.55 119.8 2.01 26.19-1.64 51.87-12.59 75.75Z"
    />
  </g>
  <text
    x="44"
    y="27"
    font-family="Montserrat, ui-sans-serif, system-ui, -apple-system, sans-serif"
    font-size="26"
    font-weight="600"
    fill="#ffffff"
    letter-spacing="-0.02em"
  >pulso</text>
</svg>
